<svg width="509" height="115" viewBox="0 0 509 115" fill="none" xmlns="http://www.w3.org/2000/svg">
<rect width="509" height="115" fill="#E5E5E5"/>
<rect width="800" height="300" transform="translate(-145 -92)" fill="white"/>
<path d="M62.0788 25.5813C62.0788 15.8864 54.1923 8 44.4975 8C34.2803 8 28.1721 15.6604 28.1721 23.0696H38.2185C38.2185 20.985 40.1675 18.0464 44.4975 18.0464C48.6517 18.0464 52.0323 21.4271 52.0323 25.5813C52.0323 29.7355 49 33.1161 41.3533 33.1161H14V43.1625H41.3533C54.259 43.1625 62.0788 35.2761 62.0788 25.5813ZM62.0788 25.5813C62.0788 15.8864 54.1923 8 44.4975 8C34.2803 8 28.1721 15.6604 28.1721 23.0696H38.2185C38.2185 20.985 40.1675 18.0464 44.4975 18.0464C48.6517 18.0464 52.0323 21.4271 52.0323 25.5813C52.0323 29.7355 49 33.1161 41.3533 33.1161H14V43.1625H41.3533C54.259 43.1625 62.0788 35.2761 62.0788 25.5813Z" fill="url(#paint0_linear)"/>
<path d="M84.3667 90.4187C84.3667 100.114 76.4802 108 66.7854 108C56.5682 108 50.4599 100.34 50.4599 92.9304H60.5064C60.5064 95.015 62.4554 97.9536 66.7854 97.9536C70.9396 97.9536 74.3202 94.5729 74.3202 90.4187C74.3202 86.2645 70.5 82.8839 63.6412 82.8839L33.2879 82.8839L33.2879 72.8375L63.6412 72.8375C76.5469 72.8375 84.3667 80.7239 84.3667 90.4187ZM84.3667 90.4187C84.3667 100.114 76.4802 108 66.7854 108C56.5682 108 50.4599 100.34 50.4599 92.9304H60.5064C60.5064 95.015 62.4554 97.9536 66.7854 97.9536C70.9396 97.9536 74.3202 94.5729 74.3202 90.4187C74.3202 86.2645 70.5 82.8839 63.6412 82.8839L33.2879 82.8839L33.2879 72.8375L63.6412 72.8375C76.5469 72.8375 84.3667 80.7239 84.3667 90.4187Z" fill="url(#paint1_linear)"/>
<path d="M87 23.5C75.9188 23.5 68.102 31.9269 68.102 43.0081H77C77 37.5 81 33.5 87 33.5C93 33.5 96 37.5 96 43.0081C96 48.5162 92.1036 53.0545 81.5 53.0545H14V63.101H83C98.7028 63.101 106 53.0081 106 43.0081C106 31.9269 98.5 23.5 87 23.5Z" fill="url(#paint2_linear)"/>
<path d="M27.1701 72.8375H14V82.9683H27.1701V72.8375Z" fill="url(#paint3_linear)"/>
<defs>
<linearGradient id="paint0_linear" x1="22" y1="16.5" x2="80" y2="108" gradientUnits="userSpaceOnUse">
<stop offset="0.078225" stop-color="#54C8F1"/>
<stop offset="0.572917" stop-color="#41A2EF"/>
<stop offset="1" stop-color="#3386EE"/>
</linearGradient>
<linearGradient id="paint1_linear" x1="22" y1="16.5" x2="80" y2="108" gradientUnits="userSpaceOnUse">
<stop offset="0.078225" stop-color="#54C8F1"/>
<stop offset="0.572917" stop-color="#41A2EF"/>
<stop offset="1" stop-color="#3386EE"/>
</linearGradient>
<linearGradient id="paint2_linear" x1="22" y1="16.5" x2="80" y2="108" gradientUnits="userSpaceOnUse">
<stop offset="0.078225" stop-color="#54C8F1"/>
<stop offset="0.572917" stop-color="#41A2EF"/>
<stop offset="1" stop-color="#3386EE"/>
</linearGradient>
<linearGradient id="paint3_linear" x1="22" y1="16.5" x2="80" y2="108" gradientUnits="userSpaceOnUse">
<stop offset="0.078225" stop-color="#54C8F1"/>
<stop offset="0.572917" stop-color="#41A2EF"/>
<stop offset="1" stop-color="#3386EE"/>
</linearGradient>
</defs>
</svg>
